<svg width="183" height="45" viewBox="0 0 183 45" fill="none" xmlns="http://www.w3.org/2000/svg">
<g clip-path="url(#clip0_779_1602)">
<path d="M67.31 18.2001C66.86 21.4001 63.9 24.0101 60.62 24.0101H53.16L52.2 30.7801H49L51.18 15.2701C51.48 13.1901 52.67 12.1401 54.75 12.1401H62.13C65.43 12.1401 67.78 14.8501 67.3 18.2101L67.31 18.2001ZM61.79 15.3201H54.38L53.61 20.8101H60.94C62.46 20.8101 63.9 19.5301 64.14 17.9601C64.32 16.5201 63.31 15.3301 61.79 15.3301V15.3201Z" fill="white"/>
<path d="M73.3298 15.3201L72.6898 19.8501H81.5398L81.1098 23.0501H72.2098L71.5698 27.5801H84.4298L83.9998 30.7801H71.1898C69.3498 30.7801 68.3398 29.8701 68.3398 28.2201C68.3398 28.0101 68.3698 27.7701 68.3898 27.5301L70.1199 15.2701C70.4199 13.1901 71.6098 12.1401 73.6898 12.1401H86.6098L86.1798 15.3301H73.3098L73.3298 15.3201Z" fill="white"/>
<path d="M89.1802 15.2599C89.4202 13.4299 90.9102 12.1299 92.7502 12.1299H100.69C103.62 12.1299 105.72 14.5499 105.3 17.5599C104.92 20.4099 102.29 22.7299 99.3302 22.7299H97.8902C97.4602 22.7299 97.1202 23.0499 97.0602 23.4199C97.0302 23.5799 97.0302 23.7099 97.1602 23.8699L103.93 30.7699H99.2102L94.7902 26.1599C93.9102 25.2599 93.5702 24.1399 93.7302 23.0499C93.9902 21.1799 95.7002 19.5299 98.1802 19.5299H99.6702C100.84 19.5299 101.96 18.5499 102.15 17.3199C102.31 16.2299 101.53 15.3199 100.36 15.3199H92.3702L90.1902 30.7699H86.9902L89.1702 15.2599H89.1802Z" fill="white"/>
<path d="M124.77 26.5102C122.61 29.4902 119.15 31.4402 115.5 31.4402C110.41 31.4402 106.71 27.6602 106.71 22.7602C106.71 16.7402 112.12 11.4702 118.08 11.4702C121.84 11.4702 124.8 13.5202 126.13 16.5002L123.2 17.9902C122.35 16.1602 120.62 14.6602 117.88 14.6602C113.56 14.6602 109.91 18.4402 109.91 22.5202C109.91 25.5602 112.04 28.2502 115.72 28.2502C118.36 28.2502 120.73 26.8402 122.17 24.8102L124.78 26.5202L124.77 26.5102Z" fill="white"/>
<path d="M140.7 26.88H130.82L129.01 30.77H125.57L133.13 14.41C134.03 12.57 135.9 11.46 137.8 11.46C139.79 11.46 141.34 12.71 141.72 14.52L144.73 30.77H141.42L140.7 26.88ZM140.14 23.76L138.62 15.47C138.51 14.92 138.06 14.65 137.55 14.65C136.94 14.65 136.3 15.05 136.08 15.58L132.27 23.76H140.13H140.14Z" fill="white"/>
<path d="M148.63 15.2599C148.87 13.4299 150.36 12.1299 152.2 12.1299H160.14C163.07 12.1299 165.17 14.5499 164.75 17.5599C164.38 20.4099 161.74 22.7299 158.78 22.7299H157.34C156.92 22.7299 156.57 23.0499 156.52 23.4199C156.49 23.5799 156.49 23.7099 156.63 23.8699L163.4 30.7699H158.68L154.26 26.1599C153.38 25.2599 153.03 24.1399 153.19 23.0499C153.46 21.1799 155.16 19.5299 157.64 19.5299H159.13C160.3 19.5299 161.42 18.5499 161.61 17.3199C161.77 16.2299 161 15.3199 159.83 15.3199H151.84L149.66 30.7699H146.46L148.64 15.2599H148.63Z" fill="white"/>
<path d="M182.12 15.3199H172.47C171.22 15.3199 170.02 16.3899 169.84 17.6899C169.65 18.8899 170.48 19.8499 171.76 19.8499H177.03C180.01 19.8499 182.17 22.3499 181.74 25.4199C181.34 28.3799 178.57 30.7799 175.59 30.7799H165.18L165.61 27.5799H175.95C177.2 27.5799 178.4 26.5099 178.59 25.2099C178.77 24.0099 177.93 23.0499 176.67 23.0499H171.4C168.39 23.0499 166.26 20.5499 166.68 17.4799C167.1 14.5499 169.82 12.1299 172.83 12.1299H182.55L182.12 15.3199Z" fill="white"/>
<path d="M32.9102 15.7598L36.0202 16.7198L36.6702 12.0898H33.4002L32.9102 15.7598Z" fill="white"/>
<path d="M45.8704 12.1299L44.2704 23.6099C43.8904 26.1399 41.5004 28.2499 38.9204 28.2499C36.3404 28.2499 34.7104 26.2499 35.0504 23.7199L35.4304 21.0099L31.8904 23.5599V23.6199C31.2704 27.9099 34.3304 31.4499 38.7004 31.4499C43.0704 31.4499 46.8204 28.0099 47.4404 23.7299L49.0704 12.1499H45.8704V12.1299Z" fill="white"/>
<path d="M0 44.28L35.44 18.78L23.14 14.98L41.53 0L11.41 18.48L24.2 22.43L0 44.28Z" fill="#009FE3"/>
<path d="M0 44.28L35.43 18.78L23.13 14.98L41.52 0L11.41 18.48L24.19 22.43L0 44.28Z" fill="url(#paint0_radial_779_1602)"/>
<path d="M23.1295 14.98L21.5195 14.49L41.5495 0L23.1295 14.98Z" fill="#007FB0"/>
<path d="M33.8196 18.29L35.4296 18.79L0.0595703 44.23L33.8196 18.29Z" fill="#007FB0"/>
</g>
<defs>
<radialGradient id="paint0_radial_779_1602" cx="0" cy="0" r="1" gradientUnits="userSpaceOnUse" gradientTransform="translate(26.74 18.23) scale(16.46)">
<stop offset="0.28" stop-color="white" stop-opacity="0.6"/>
<stop offset="0.77" stop-color="#3786C7" stop-opacity="0.3"/>
<stop offset="1" stop-color="#2581C4"/>
</radialGradient>
<clipPath id="clip0_779_1602">
<rect width="182.55" height="44.28" fill="white"/>
</clipPath>
</defs>
</svg>
